<?xml version="1.0" encoding="iso-8859-1"?>
<!-- Generator: Adobe Illustrator 19.0.0, SVG Export Plug-In . SVG Version: 6.00 Build 0)  -->
<svg version="1.1" id="Layer_1" xmlns="http://www.w3.org/2000/svg" xmlns:xlink="http://www.w3.org/1999/xlink" x="0px" y="0px"
	 viewBox="0 0 512 512" style="enable-background:new 0 0 512 512;" xml:space="preserve">
<path style="fill:#D3EDD7;" d="M99.388,275.559c66.588,0,120.471,80.254,120.471,173.478c0,19.961,16.182,36.141,36.141,36.141
	s36.141-16.18,36.141-36.141c0-93.224,53.883-173.478,120.471-173.478l-55.818-10.441l-64.653,28.512l-12.047,46.984v-60.235
	h-48.188v60.235l-12.047-46.984l-39.354-25.299L99.388,275.559z"/>
<path style="fill:#AEDEBA;" d="M387.313,271.945c-66.588,0-120.471,80.254-120.471,173.478c0,17.259-12.1,31.683-28.278,35.273
	c5.171,2.854,11.112,4.483,17.436,4.483c19.961,0,36.141-16.182,36.141-36.141c0-93.224,53.883-173.478,120.471-173.478
	L387.313,271.945z"/>
<path style="fill:#95D5A7;" d="M502.965,186.411c0,20.014-18.303,32.704-32.746,46.835c-12.117,11.856-22.301,31.605-42.396,39.52
	c-16.3,6.42-38.247,0.055-58.607,3.991c-17.757,3.432-35.23,17.857-55.318,19.468c-18.401,1.477-38.112-9.826-57.898-9.826
	c-19.787,0-39.5,11.301-57.902,9.826c-20.087-1.612-37.563-16.036-55.32-19.469c-20.36-3.936-42.307,2.429-58.607-3.992
	c-20.093-7.915-30.278-27.665-42.394-39.522c-14.441-14.13-32.743-26.819-32.743-46.832c0-19.137,18.345-35.7,31.618-54.806
	c10.93-15.733,17.306-39.12,35.409-52.656c15.843-11.846,40.123-12.123,60.274-20.873c18.478-8.022,34.921-25.893,56.128-30.25
	c19.879-4.085,41.983,5.587,63.535,5.587c21.551,0,43.654-9.673,63.533-5.587c21.209,4.357,37.653,22.228,56.131,30.25
	c20.151,8.75,44.431,9.027,60.274,20.873c18.104,13.536,24.48,36.923,35.41,52.658C484.619,150.711,502.965,167.275,502.965,186.411
	z"/>
<path style="fill:#80CB93;" d="M471.347,131.606c-10.93-15.735-17.306-39.122-35.41-52.656
	c-15.843-11.846-40.123-12.123-60.274-20.873c-18.478-8.023-34.923-25.893-56.132-30.25c-15.031-3.089-31.336,1.687-47.71,4.201
	c15.524,7.09,28.925,19.675,43.607,26.051c20.151,8.75,44.431,9.027,60.274,20.873c18.104,13.535,24.48,36.923,35.41,52.656
	c13.272,19.104,31.617,35.669,31.617,54.806c0,20.014-18.303,32.704-32.746,46.835c-12.117,11.855-22.301,31.605-42.396,39.52
	c-16.301,6.421-38.247,0.055-58.607,3.992c-10.589,2.047-21.078,8.002-32.079,12.818c12.658,3.22,25.101,7.605,36.997,6.651
	c20.086-1.612,37.56-16.037,55.318-19.469c20.36-3.936,42.307,2.429,58.607-3.992c20.094-7.915,30.279-27.664,42.396-39.52
	c14.443-14.131,32.746-26.822,32.746-46.835C502.965,167.274,484.619,150.711,471.347,131.606z"/>
<path style="fill:#2E2D31;" d="M489.318,140.369c-3.582-4.532-7.285-9.218-10.55-13.919c-3.327-4.79-6.31-10.598-9.468-16.745
	c-6.681-13.007-14.254-27.75-27.952-37.992c-10.828-8.097-24.407-11.374-37.539-14.543c-8.357-2.017-16.995-4.102-24.547-7.381
	c-6.644-2.884-13.246-7.36-20.235-12.1c-11.415-7.739-23.218-15.742-37.676-18.713c-13.305-2.732-26.829-0.224-39.908,2.2
	c-8.882,1.647-17.272,3.203-25.442,3.203c-8.17,0-16.56-1.555-25.442-3.202c-13.079-2.426-26.604-4.934-39.912-2.2
	c-14.458,2.971-26.26,10.974-37.675,18.713c-6.99,4.739-13.591,9.215-20.233,12.099c-4.578,1.988-6.678,7.309-4.69,11.887
	c1.987,4.575,7.308,6.676,11.886,4.69c8.191-3.556,15.809-8.722,23.179-13.719c10.407-7.056,20.238-13.723,31.171-15.968
	c9.846-2.026,21.084,0.06,32.98,2.266c9.294,1.724,18.905,3.506,28.737,3.506c9.832,0,19.443-1.782,28.738-3.506
	c11.895-2.205,23.133-4.289,32.976-2.267c10.933,2.246,20.763,8.912,31.172,15.968c7.368,4.996,14.988,10.164,23.179,13.72
	c8.987,3.901,18.401,6.174,27.505,8.37c11.88,2.868,23.103,5.577,30.957,11.451c10.353,7.74,16.63,19.958,22.699,31.775
	c3.289,6.402,6.69,13.025,10.701,18.798c3.583,5.157,7.461,10.065,11.213,14.814c9.661,12.227,18.787,23.776,18.787,34.836
	c0,12.62-10.772,22.523-22.177,33.007c-2.595,2.385-5.279,4.851-7.852,7.37c-3.998,3.912-7.584,8.329-11.378,13.006
	c-7.935,9.779-16.141,19.891-28.009,24.566c-7.254,2.856-16.994,2.538-27.302,2.205c-9.627-0.311-19.581-0.635-29.708,1.323
	c-8.958,1.732-17.501,5.749-25.764,9.634c-9.767,4.594-18.992,8.932-28.561,9.7c-8.049,0.647-17.096-1.823-26.677-4.438
	c-9.761-2.664-19.852-5.418-30.5-5.418c-10.647,0-20.74,2.754-30.502,5.418c-9.579,2.614-18.627,5.086-26.677,4.438
	c-9.571-0.77-18.797-5.107-28.564-9.701c-8.262-3.885-16.806-7.902-25.764-9.634c-10.126-1.958-20.078-1.634-29.708-1.323
	c-10.311,0.335-20.051,0.652-27.302-2.206c-11.87-4.675-20.075-14.787-28.009-24.568c-3.794-4.677-7.379-9.094-11.376-13.006
	c-2.574-2.519-5.257-4.986-7.853-7.372c-11.404-10.482-22.174-20.384-22.174-33.002c0-11.062,9.128-22.612,18.791-34.84
	c3.75-4.748,7.629-9.656,11.211-14.811c4.012-5.777,7.413-12.398,10.701-18.799c6.069-11.817,12.345-24.034,22.697-31.775
	c3.996-2.988,4.814-8.651,1.825-12.647c-2.986-3.994-8.647-4.81-12.647-1.826C56.952,81.954,49.381,96.698,42.7,109.704
	c-3.159,6.149-6.142,11.957-9.468,16.747c-3.264,4.698-6.967,9.383-10.548,13.916C11.531,154.478,0,169.072,0,186.411
	c0,20.551,14.883,34.233,28.014,46.304c2.608,2.399,5.072,4.663,7.444,6.985c3.256,3.186,6.523,7.213,9.982,11.476
	c8.968,11.052,19.132,23.579,35.42,29.995c7.668,3.019,16.032,3.677,24.451,3.67c57.78,4.724,105.513,77.99,105.513,164.197
	c0,24.911,20.266,45.176,45.176,45.176s45.176-20.266,45.176-45.176c0-41.677,11.087-81.768,31.218-112.893
	c2.709-4.191,1.509-9.783-2.68-12.494c-4.189-2.708-9.782-1.509-12.494,2.68c-21.998,34.012-34.114,77.59-34.114,122.707
	c0,14.946-12.16,27.106-27.106,27.106c-14.947,0-27.106-12.16-27.106-27.106c0-47.193-13.088-92.23-36.853-126.815
	c-6.587-9.586-13.722-17.751-21.302-24.592c8.174,3.6,17.079,6.835,26.636,7.603c1.376,0.111,2.748,0.163,4.119,0.163
	c3.951,0,7.875-0.441,11.768-1.119l9.893,38.582c1.035,4.037,4.672,6.792,8.745,6.792c0.377,0,0.757-0.024,1.138-0.072
	c4.516-0.571,7.904-4.412,7.904-8.964v-43.156c5.15-1.187,10.157-2.02,15.059-2.02s9.909,0.834,15.059,2.021v43.155
	c0,4.553,3.386,8.394,7.904,8.964c0.381,0.048,0.761,0.072,1.137,0.072c4.073,0,7.709-2.755,8.745-6.792l9.891-38.573
	c5.243,0.914,10.545,1.381,15.885,0.948c12.843-1.03,24.512-6.517,34.806-11.359c7.592-3.57,14.762-6.943,21.505-8.246
	c8.135-1.572,17.06-1.282,25.69-1.002c11.694,0.382,23.783,0.772,34.511-3.451c16.288-6.416,26.451-18.943,35.418-29.992
	c3.46-4.263,6.727-8.29,9.985-11.476c2.373-2.321,4.836-4.586,7.444-6.984C497.115,220.649,512,206.966,512,186.411
	C512,169.073,500.47,154.48,489.318,140.369z"/>
<g>
</g>
<g>
</g>
<g>
</g>
<g>
</g>
<g>
</g>
<g>
</g>
<g>
</g>
<g>
</g>
<g>
</g>
<g>
</g>
<g>
</g>
<g>
</g>
<g>
</g>
<g>
</g>
<g>
</g>
</svg>
