<?xml version="1.0" encoding="iso-8859-1"?>
<!-- Generator: Adobe Illustrator 19.0.0, SVG Export Plug-In . SVG Version: 6.00 Build 0)  -->
<svg version="1.1" id="Layer_1" xmlns="http://www.w3.org/2000/svg" xmlns:xlink="http://www.w3.org/1999/xlink" x="0px" y="0px"
	 viewBox="0 0 420.66 420.66" style="enable-background:new 0 0 420.66 420.66;" xml:space="preserve">
<g>
	<path style="fill:#F5C525;" d="M50.33,390.33V254.704l13.084,10.77c1.26,1.037,2.53,2.064,3.829,3.092
		c47.922,38.122,97.395,58.265,143.087,58.265s95.166-20.143,143.069-58.25c1.317-1.042,2.587-2.069,3.847-3.106l13.084-10.77
		V390.33H50.33z"/>
	<path style="fill:#F5C525;" d="M357.245,155.186c-1.259-1.037-2.529-2.064-3.827-3.091C305.495,113.973,256.022,93.83,210.33,93.83
		s-95.165,20.143-143.069,58.251c-1.316,1.041-2.586,2.068-3.845,3.105L50.33,165.961V30.33h320v135.631L357.245,155.186z"/>
	<path style="fill:#EFEFEF;" d="M210.33,326.83c-57.619,0-109.444-31.549-142.774-58.015
		c-26.754-21.233-46.121-42.506-55.284-53.297l-4.401-5.183l4.406-5.179c9.211-10.827,34.395-38.71,69.22-63.735
		c43.946-31.579,87.292-47.591,128.833-47.591c57.62,0,109.445,31.549,142.775,58.015c26.757,21.236,46.122,42.507,55.283,53.297
		l4.401,5.183l-4.406,5.179c-9.211,10.827-34.396,38.711-69.22,63.735C295.217,310.818,251.871,326.83,210.33,326.83z
		 M210.33,127.83c-45.491,0-82.5,37.009-82.5,82.5s37.009,82.5,82.5,82.5s82.5-37.009,82.5-82.5S255.821,127.83,210.33,127.83z"/>
	<path style="fill:#3E81C8;" d="M210.33,127.83c-45.491,0-82.5,37.009-82.5,82.5s37.009,82.5,82.5,82.5s82.5-37.009,82.5-82.5
		S255.821,127.83,210.33,127.83z"/>
	<g>
		<path style="fill:#231F20;" d="M418.98,205.42c-0.76-0.98-15.63-19.96-40.65-42.64V30.33c0-4.42-3.58-8-8-8h-320
			c-4.42,0-8,3.58-8,8v132.45c-25.02,22.68-39.89,41.66-40.65,42.64c-2.24,2.89-2.24,6.93,0,9.82c0.76,0.98,15.63,19.96,40.65,42.64
			v132.45c0,4.42,3.58,8,8,8h320c4.42,0,8-3.58,8-8V257.88c25.02-22.68,39.89-41.66,40.65-42.64
			C421.22,212.35,421.22,208.31,418.98,205.42z M58.33,38.33h304v110.68c-1.3-1.07-2.61-2.13-3.95-3.19
			c-49.34-39.25-100.53-59.99-148.05-59.99s-98.71,20.74-148.05,59.99c-1.34,1.06-2.65,2.12-3.95,3.19
			C58.33,149.01,58.33,38.33,58.33,38.33z M362.33,382.33h-304V271.65c1.3,1.07,2.61,2.13,3.95,3.19
			c49.34,39.25,100.53,59.99,148.05,59.99s98.71-20.74,148.05-59.99c1.34-1.06,2.65-2.12,3.95-3.19L362.33,382.33L362.33,382.33z
			 M210.33,318.83c-55.29,0-105.46-30.6-137.8-56.28c-26.8-21.27-46.17-42.8-54.16-52.21c18.53-21.78,98.27-108.51,191.96-108.51
			c55.29,0,105.46,30.6,137.8,56.28c26.8,21.27,46.17,42.8,54.16,52.21C383.76,232.1,304.02,318.83,210.33,318.83z"/>
		<path style="fill:#231F20;" d="M210.33,119.83c-49.9,0-90.5,40.6-90.5,90.5s40.6,90.5,90.5,90.5s90.5-40.6,90.5-90.5
			S260.23,119.83,210.33,119.83z M210.33,284.83c-41.08,0-74.5-33.42-74.5-74.5s33.42-74.5,74.5-74.5s74.5,33.42,74.5,74.5
			S251.41,284.83,210.33,284.83z"/>
		<path style="fill:#231F20;" d="M210.33,182.33c-15.44,0-28,12.56-28,28s12.56,28,28,28s28-12.56,28-28
			S225.77,182.33,210.33,182.33z"/>
		<path style="fill:#231F20;" d="M218.33,157.33v7c0,4.42-3.58,8-8,8s-8-3.58-8-8v-7c0-4.42,3.58-8,8-8S218.33,152.91,218.33,157.33
			z"/>
		<path style="fill:#231F20;" d="M218.33,256.33v7c0,4.42-3.58,8-8,8s-8-3.58-8-8v-7c0-4.42,3.58-8,8-8S218.33,251.91,218.33,256.33
			z"/>
		<path style="fill:#231F20;" d="M183.46,183.46c-1.56,1.56-3.61,2.34-5.66,2.34s-4.09-0.78-5.65-2.34l-4.95-4.95
			c-3.13-3.12-3.13-8.19,0-11.31c3.12-3.13,8.19-3.13,11.31,0l4.95,4.95C186.58,175.27,186.58,180.34,183.46,183.46z"/>
		<path style="fill:#231F20;" d="M253.46,253.46c-1.56,1.57-3.61,2.35-5.65,2.35c-2.05,0-4.1-0.78-5.66-2.35l-4.95-4.95
			c-3.12-3.12-3.12-8.19,0-11.31c3.13-3.12,8.19-3.12,11.31,0l4.95,4.95C256.59,245.27,256.59,250.34,253.46,253.46z"/>
		<path style="fill:#231F20;" d="M172.33,210.33c0,4.42-3.58,8-8,8h-7c-4.42,0-8-3.58-8-8s3.58-8,8-8h7
			C168.75,202.33,172.33,205.91,172.33,210.33z"/>
		<path style="fill:#231F20;" d="M271.33,210.33c0,4.42-3.58,8-8,8h-7c-4.42,0-8-3.58-8-8s3.58-8,8-8h7
			C267.75,202.33,271.33,205.91,271.33,210.33z"/>
		<path style="fill:#231F20;" d="M183.46,248.51l-4.95,4.95c-1.56,1.57-3.61,2.35-5.66,2.35c-2.04,0-4.09-0.78-5.65-2.35
			c-3.13-3.12-3.13-8.19,0-11.31l4.95-4.95c3.12-3.12,8.19-3.12,11.31,0C186.58,240.32,186.58,245.39,183.46,248.51z"/>
		<path style="fill:#231F20;" d="M253.46,178.51l-4.95,4.95c-1.56,1.56-3.6,2.34-5.65,2.34c-2.05,0-4.1-0.78-5.66-2.34
			c-3.12-3.12-3.12-8.19,0-11.31l4.95-4.95c3.12-3.13,8.19-3.13,11.31,0C256.59,170.32,256.59,175.39,253.46,178.51z"/>
	</g>
</g>
<g>
</g>
<g>
</g>
<g>
</g>
<g>
</g>
<g>
</g>
<g>
</g>
<g>
</g>
<g>
</g>
<g>
</g>
<g>
</g>
<g>
</g>
<g>
</g>
<g>
</g>
<g>
</g>
<g>
</g>
</svg>
