<?xml version="1.0" encoding="iso-8859-1"?>
<!-- Generator: Adobe Illustrator 19.0.0, SVG Export Plug-In . SVG Version: 6.00 Build 0)  -->
<svg version="1.1" id="Layer_1" xmlns="http://www.w3.org/2000/svg" xmlns:xlink="http://www.w3.org/1999/xlink" x="0px" y="0px"
	 viewBox="0 0 467.82 467.82" style="enable-background:new 0 0 467.82 467.82;" xml:space="preserve">
<g>
	<polyline style="fill:#F7B239;" points="334.632,6 133.188,6 133.188,461.82 334.632,461.82 334.632,6 	"/>
	<path style="fill:#333333;" d="M334.633,467.82H133.187c-3.313,0-6-2.687-6-6V6c0-3.313,2.687-6,6-6h201.446c3.313,0,6,2.687,6,6
		v455.82C340.633,465.134,337.947,467.82,334.633,467.82z M139.187,455.82h189.446V12H139.187V455.82z"/>
	<polyline style="fill:#81BBEA;" points="312.501,28.14 312.501,439.68 155.32,439.68 155.32,28.14 312.501,28.14 	"/>
	<polyline style="fill:#ACD0ED;" points="312.501,28.14 289.29,28.14 155.32,162.12 155.32,379.11 312.501,221.93 312.501,28.14 	
		"/>
	<polyline style="fill:#ACD0ED;" points="312.501,344.38 217.201,439.68 312.501,439.68 312.501,344.38 	"/>
	<path style="fill:#333333;" d="M312.496,445.684H155.324c-3.314,0-6-2.687-6-6V28.137c0-3.313,2.686-6,6-6h157.172
		c3.313,0,6,2.687,6,6v411.547C318.496,442.997,315.81,445.684,312.496,445.684z M161.324,433.684h145.172V34.137H161.324V433.684z"
		/>
	<path style="fill:#FFFFFF;" d="M286.998,419.648c-3.313,0-6-2.687-6-6V76.165c0-3.313,2.687-6,6-6s6,2.687,6,6v337.483
		C292.998,416.961,290.312,419.648,286.998,419.648z"/>
	<path style="fill:#FFFFFF;" d="M287.003,58.169c-1.59,0-3.13-0.64-4.25-1.76c-1.11-1.12-1.76-2.66-1.76-4.24
		c0-0.4,0.04-0.79,0.12-1.18c0.08-0.38,0.189-0.76,0.34-1.12c0.149-0.36,0.34-0.71,0.56-1.03c0.21-0.33,0.47-0.64,0.74-0.92
		c1.12-1.11,2.66-1.75,4.25-1.75c1.58,0,3.12,0.64,4.24,1.75c0.27,0.28,0.52,0.59,0.739,0.92c0.221,0.32,0.41,0.67,0.561,1.03
		c0.14,0.36,0.26,0.74,0.34,1.12c0.08,0.39,0.12,0.78,0.12,1.18c0,1.58-0.65,3.12-1.76,4.24
		C290.123,57.529,288.583,58.169,287.003,58.169z"/>
</g>
<g>
</g>
<g>
</g>
<g>
</g>
<g>
</g>
<g>
</g>
<g>
</g>
<g>
</g>
<g>
</g>
<g>
</g>
<g>
</g>
<g>
</g>
<g>
</g>
<g>
</g>
<g>
</g>
<g>
</g>
</svg>
