<?xml version="1.0" encoding="iso-8859-1"?>
<!-- Generator: Adobe Illustrator 19.0.0, SVG Export Plug-In . SVG Version: 6.00 Build 0)  -->
<svg version="1.1" id="Layer_1" xmlns="http://www.w3.org/2000/svg" xmlns:xlink="http://www.w3.org/1999/xlink" x="0px" y="0px"
	 viewBox="0 0 512.001 512.001" style="enable-background:new 0 0 512.001 512.001;" xml:space="preserve">
<g>
	<path style="fill:#808080;" d="M312.604,127.795c-1.039,0-2.097-0.172-3.135-0.535c-4.955-1.731-7.569-7.152-5.837-12.106
		L341.635,6.372c1.731-4.955,7.152-7.57,12.106-5.837c4.955,1.731,7.569,7.152,5.837,12.106l-38.002,108.782
		C320.207,125.341,316.533,127.795,312.604,127.795z"/>
	<path style="fill:#808080;" d="M341.246,142.529c-2.181,0-4.372-0.746-6.161-2.272c-3.994-3.406-4.471-9.405-1.066-13.398
		l85.203-99.921c3.406-3.992,9.405-4.471,13.398-1.066c3.994,3.406,4.471,9.405,1.066,13.398l-85.203,99.921
		C346.602,141.395,343.933,142.529,341.246,142.529z"/>
</g>
<path style="fill:#F7B239;" d="M409.8,188.164l-157.597,24.317l-147.878-24.317c7.514-14.813,17.107-28.384,28.422-40.334
	c2.991-3.168,6.108-6.222,9.339-9.136c5.677-5.17,11.709-9.947,18.057-14.306c3.865-2.674,7.856-5.183,11.949-7.514
	c8.984-5.17,18.488-9.529,28.41-12.988c4.714-1.66,9.516-3.105,14.408-4.346c13.483-3.421,27.611-5.233,42.159-5.233
	c14.18,0,27.954,1.723,41.119,4.98c4.929,1.204,9.757,2.636,14.496,4.27c5.753,1.964,11.366,4.245,16.828,6.805
	c3.865,1.799,7.641,3.751,11.341,5.829c6.817,3.84,13.331,8.123,19.514,12.824c0.887,0.672,1.761,1.356,2.636,2.04l0.025,0.013
	c2.99,2.344,5.892,4.803,8.705,7.337C387.282,152.443,400.233,169.296,409.8,188.164z"/>
<path style="fill:#E09B2D;" d="M297.615,99.161c-13.001-3.16-26.574-4.856-40.545-4.856c-66.716,0-124.512,38.18-152.744,93.859
	h81.098C207.742,144.148,248.544,111.089,297.615,99.161z"/>
<g>
	<path style="fill:#B27214;" d="M172.004,188.164v0.165l-0.152,6.323l-12.672-0.304l0.165-6.184v-0.152
		c0.494-20.579-15.649-33.529-25.318-39.409l-1.28-0.773c2.991-3.168,6.108-6.222,9.339-9.136
		C168.595,155.497,172.257,176.747,172.004,188.164z"/>
	<path style="fill:#B27214;" d="M209.778,188.164c0,0.114-0.013,0.215-0.013,0.329l-0.329,6.323l-12.646-0.659l0.317-5.994
		l0.013-0.329c2.205-42.615-36.52-63.206-36.912-63.409l-0.063-0.038c3.865-2.674,7.856-5.183,11.949-7.514
		C184.574,125.326,211.691,148.388,209.778,188.164z"/>
	<path style="fill:#B27214;" d="M340.853,116.189c-7.907,20.541-26.978,37.394-55.172,48.786
		c-14.218,5.74-27.333,8.756-34.594,10.15c0.139,4.22,0.025,8.553-0.444,13.039c-0.013,0.228-0.038,0.469-0.063,0.697l-0.697,6.298
		l-12.596-1.394l0.621-5.601l0.076-0.697c5.259-47.911-33.947-80.68-34.34-81.01l-3.143-2.572c4.714-1.66,9.516-3.105,14.408-4.346
		c4.752,4.448,13.799,13.863,21.669,27.295c25.533-0.608,52.435-20.237,61.609-27.548c4.929,1.204,9.757,2.636,14.496,4.27
		l-2.813,2.496c-1.47,1.305-33.326,29.208-67.058,33.035c3.054,7.045,5.55,14.864,6.995,23.354
		c17.512-3.523,66.513-16.359,79.477-51.472l0.228-0.608C333.377,112.16,337.153,114.111,340.853,116.189z"/>
	<path style="fill:#B27214;" d="M371.734,138.403l-0.19,0.9c-3.751,18.044-22.999,36.14-42.349,48.862
		c-2.99,1.977-5.994,3.814-8.934,5.499l-5.487,3.155l-24.136-2.923l17.813-8.064l5.5-3.155
		c24.203-13.926,42.361-32.389,45.174-45.947l1.242-7.717c0.887,0.672,1.761,1.356,2.636,2.04l0.025,0.013
		C366.019,133.41,368.921,135.868,371.734,138.403z"/>
</g>
<g>
	<polygon style="fill:#E6E6E6;" points="420.824,412.44 410.294,512.001 101.714,512.001 91.184,412.44 252.626,385.237 	"/>
	<path style="fill:#E6E6E6;" d="M507.019,100.606c-4.275-3.053-10.208-2.057-13.257,2.214l-60.911,85.345H409.8H104.325
		l-14.319,24.317l-12.684,68.82l171.08,38.044l186.286-38.044l7.817-73.943l66.729-93.495
		C512.282,109.59,511.291,103.655,507.019,100.606z"/>
</g>
<polygon style="fill:#F95428;" points="450.64,281.301 432.647,412.44 420.824,412.44 91.184,412.44 79.349,412.44 61.355,281.301 
	77.321,281.301 434.687,281.301 "/>
<polygon style="fill:#E54728;" points="77.321,281.301 61.355,281.301 79.349,412.44 91.184,412.44 178.188,412.44 160.194,281.301 
	"/>
<g>
	<polygon style="fill:#CCCCCC;" points="159.611,412.44 91.184,412.44 101.714,512.001 170.141,512.001 	"/>
	<path style="fill:#CCCCCC;" d="M145.748,281.301l-9.846-93.137H79.151L18.239,102.82c-3.049-4.272-8.983-5.261-13.256-2.214
		c-4.273,3.049-5.264,8.984-2.215,13.257l66.738,93.507l7.816,73.931H145.748z"/>
</g>
<g>
</g>
<g>
</g>
<g>
</g>
<g>
</g>
<g>
</g>
<g>
</g>
<g>
</g>
<g>
</g>
<g>
</g>
<g>
</g>
<g>
</g>
<g>
</g>
<g>
</g>
<g>
</g>
<g>
</g>
</svg>
