<?xml version="1.0" encoding="iso-8859-1"?>
<!-- Generator: Adobe Illustrator 17.1.0, SVG Export Plug-In . SVG Version: 6.00 Build 0)  -->
<!DOCTYPE svg PUBLIC "-//W3C//DTD SVG 1.1//EN" "http://www.w3.org/Graphics/SVG/1.1/DTD/svg11.dtd">
<svg version="1.1" id="Capa_1" xmlns="http://www.w3.org/2000/svg" xmlns:xlink="http://www.w3.org/1999/xlink" x="0px" y="0px"
	 viewBox="0 0 192.118 192.118" style="enable-background:new 0 0 192.118 192.118;" xml:space="preserve">
<path d="M163.645,167.385c-0.021,0-0.041,0-0.062,0h-32.228c-0.028,0-0.057,0-0.085,0H60.046c-0.027,0-0.056,0-0.085,0H27.734
	c-0.041,0.001-0.082,0.001-0.123,0H3c-0.959,0-1.859-0.458-2.424-1.233c-0.565-0.774-0.726-1.772-0.433-2.685L38.393,44.47V27.733
	c0-1.657,1.343-3,3-3h109.333c1.657,0,3,1.343,3,3V44.47l38.249,118.997c0.293,0.913,0.133,1.911-0.433,2.685
	c-0.564,0.775-1.465,1.233-2.424,1.233h-25.412C163.686,167.385,163.665,167.385,163.645,167.385z M166.054,161.385h18.949
	L148.653,48.293h-7.764L166.054,161.385z M133.984,161.385h25.923L134.741,48.293H120.65L133.984,161.385z M99.059,161.385h28.884
	L114.609,48.293h-15.55V161.385z M63.374,161.385h29.685V48.293H76.708L63.374,161.385z M31.41,161.385h25.923L70.667,48.293H56.575
	L31.41,161.385z M7.115,161.385h18.147L50.428,48.293h-6.962L7.115,161.385z M137.212,42.293h10.514v-11.56H44.393v11.56h9.712
	c0.041-0.001,0.082-0.001,0.123,0h19.77c0.029,0,0.057,0.001,0.08,0h43.162c0.024,0,0.052,0,0.08,0h19.77
	C137.13,42.292,137.171,42.292,137.212,42.293z"/>
<g>
</g>
<g>
</g>
<g>
</g>
<g>
</g>
<g>
</g>
<g>
</g>
<g>
</g>
<g>
</g>
<g>
</g>
<g>
</g>
<g>
</g>
<g>
</g>
<g>
</g>
<g>
</g>
<g>
</g>
</svg>
