<?xml version="1.0" standalone="no"?>
<!DOCTYPE svg PUBLIC "-//W3C//DTD SVG 20010904//EN"
 "http://www.w3.org/TR/2001/REC-SVG-20010904/DTD/svg10.dtd">
<svg version="1.0" xmlns="http://www.w3.org/2000/svg"
 width="145.000000pt" height="195.000000pt" viewBox="0 0 145.000000 195.000000"
 preserveAspectRatio="xMidYMid meet">

<g transform="translate(0.000000,195.000000) scale(0.100000,-0.100000)"
fill="#000000" stroke="none">
<path d="M1050 1800 c-16 -16 -18 -24 -9 -48 8 -24 20 -33 65 -47 68 -21 84
-37 84 -84 0 -62 -61 -240 -139 -406 -18 -37 -39 -85 -48 -107 -20 -50 -37
-58 -125 -58 -40 0 -116 -5 -168 -11 -52 -6 -161 -11 -241 -9 -155 2 -232 -10
-223 -34 4 -10 16 -12 47 -8 23 4 82 7 131 7 l88 0 3 -70 c1 -38 5 -80 9 -93
6 -19 9 -20 22 -8 16 16 20 101 4 91 -6 -4 -7 2 -1 18 7 18 5 28 -7 41 -16 16
-14 17 38 14 l55 -3 -3 -42 c-7 -87 24 -173 61 -173 14 0 14 37 2 111 -7 46
-11 90 -8 98 4 14 3 14 -6 1 -5 -8 -13 -11 -17 -7 -19 18 24 29 152 39 168 12
192 20 211 67 8 20 32 72 53 116 21 44 50 115 65 158 21 59 32 76 44 73 64
-18 60 -10 46 -85 -23 -117 -63 -253 -95 -314 -30 -58 -38 -97 -21 -97 13 0
31 -82 31 -144 0 -64 -31 -156 -72 -208 l-28 -37 25 -78 c13 -43 36 -95 50
-115 14 -20 25 -42 25 -47 0 -22 -79 -178 -106 -209 -26 -30 -35 -34 -84 -35
-43 -2 -55 1 -58 15 -2 10 7 21 25 30 36 17 53 52 53 114 0 47 -4 54 -50 105
l-50 54 30 13 c30 12 41 32 18 32 -9 0 -8 4 2 10 17 12 -26 4 -69 -12 -13 -5
-25 -7 -26 -6 -9 9 -55 119 -55 131 0 26 -30 27 -68 2 -51 -33 -150 -55 -255
-55 -67 0 -88 -3 -84 -13 3 -9 37 -12 124 -12 108 0 119 -2 115 -17 -3 -11 17
-38 57 -79 54 -53 61 -65 61 -100 0 -48 -26 -116 -57 -150 -51 -56 18 -88 102
-47 61 29 80 55 105 142 11 38 22 71 25 74 13 13 34 -37 35 -81 0 -39 -5 -52
-26 -72 -15 -14 -31 -25 -35 -25 -5 0 -9 -16 -9 -35 0 -42 20 -55 85 -55 85 0
133 45 192 182 40 92 40 127 0 180 -13 18 -32 59 -41 90 -17 55 -17 59 1 85
76 113 98 230 64 339 l-22 70 31 68 c18 37 45 123 61 189 34 142 49 206 55
227 42 160 42 245 -1 290 -69 72 -201 104 -245 60z m143 -30 c7 -6 31 -24 55
-41 39 -27 43 -33 40 -67 -2 -25 -8 -37 -18 -37 -8 0 -21 -4 -27 -8 -9 -6 -13
-1 -13 14 0 12 -9 37 -21 55 -18 29 -18 33 -4 27 15 -5 16 -3 6 15 -13 25 -44
31 -35 7 5 -12 0 -12 -28 -4 -18 6 -41 13 -50 16 -10 3 -18 12 -18 19 0 17 94
20 113 4z m84 -254 c-9 -44 -19 -63 -37 -75 -23 -15 -24 -15 -12 1 11 14 10
17 -8 23 -17 5 -20 12 -16 28 4 12 9 36 13 54 4 25 11 33 32 35 14 2 29 1 33
-2 3 -3 1 -32 -5 -64z m-600 -588 c-3 -8 -6 -5 -6 6 -1 11 2 17 5 13 3 -3 4
-12 1 -19z m87 -460 c12 -34 35 -67 67 -99 l50 -48 -22 -68 c-38 -117 -61
-146 -127 -159 l-33 -7 20 34 c26 45 49 136 44 174 -2 18 -19 44 -41 65 -41
38 -92 99 -92 110 0 4 19 13 43 20 23 7 46 17 52 22 16 14 20 9 39 -44z"/>
<path d="M381 884 c0 -11 3 -14 6 -6 3 7 2 16 -1 19 -3 4 -6 -2 -5 -13z"/>
<path d="M805 890 c-3 -6 1 -7 9 -4 18 7 21 14 7 14 -6 0 -13 -4 -16 -10z"/>
<path d="M802 840 c0 -14 2 -19 5 -12 2 6 2 18 0 25 -3 6 -5 1 -5 -13z"/>
<path d="M850 500 c-8 -5 -10 -10 -5 -10 6 0 17 5 25 10 8 5 11 10 5 10 -5 0
-17 -5 -25 -10z"/>
<path d="M820 469 c0 -5 5 -7 10 -4 6 3 10 8 10 11 0 2 -4 4 -10 4 -5 0 -10
-5 -10 -11z"/>
</g>
</svg>
