<?xml version="1.0" encoding="iso-8859-1"?>
<!-- Generator: Adobe Illustrator 16.0.0, SVG Export Plug-In . SVG Version: 6.00 Build 0)  -->
<!DOCTYPE svg PUBLIC "-//W3C//DTD SVG 1.1//EN" "http://www.w3.org/Graphics/SVG/1.1/DTD/svg11.dtd">
<svg version="1.1" id="Capa_1" xmlns="http://www.w3.org/2000/svg" xmlns:xlink="http://www.w3.org/1999/xlink" x="0px" y="0px"
	 width="109.399px" height="109.399px" viewBox="0 0 109.399 109.399" style="enable-background:new 0 0 109.399 109.399;"
	 xml:space="preserve">
<g>
	<g>
		<path d="M97.067,78.142v-4.477H62.254c-0.014-0.13-0.027-0.267-0.048-0.479c-0.031-0.435-0.15-1.403-0.164-2.036
			c-0.048-0.661-0.103-1.517-0.059-2.7c0.024-1.133,0.113-2.447,0.288-3.942c0.284-2.669,0.89-5.938,1.464-9.657
			c0.318-0.445,0.712-0.855,1.14-1.273c1.235-0.985,2.827-1.749,4.477-2.4c1.694-0.631,3.439-1.227,5.037-1.879
			c0.22,0.084,0.421,0.176,0.671,0.238c0.432,0.123,0.89,0.21,1.396,0.27c0.996,0.106,2.102,0.053,3.183-0.26
			c1.088-0.301,2.143-0.86,3.069-1.649c0.466-0.371,0.887-0.855,1.27-1.324c0.384-0.484,0.691-1.062,0.959-1.602
			c0.256-0.578,0.444-1.191,0.567-1.766c0.11-0.621,0.144-1.217,0.13-1.756c-0.041-0.575-0.144-1.105-0.273-1.561
			c-0.109-0.435-0.362-0.862-0.533-1.167c-0.158-0.305-0.373-0.546-0.493-0.696c-0.127-0.156-0.212-0.231-0.212-0.231
			s-0.113,0.034-0.315,0.108c-0.185,0.077-0.499,0.167-0.78,0.284c-0.314,0.107-0.657,0.221-1.051,0.325
			c-0.346,0.087-0.722,0.193-1.146,0.31c-0.41,0.09-0.801,0.198-1.156,0.304c-0.41,0.104-0.76,0.231-1.102,0.375
			c-0.384,0.14-0.695,0.315-1.034,0.511c-0.349,0.195-0.626,0.438-0.947,0.683c-0.596,0.522-1.164,1.157-1.64,1.913
			c-0.479,0.751-0.876,1.599-1.19,2.454c-0.158,0.428-0.295,0.859-0.404,1.257c-0.12,0.397-0.198,0.81-0.277,1.129
			c-0.051,0.195-0.078,0.378-0.105,0.546c2.936-1.345,7.594-3.675,8.415-5.237c0,0-1.352,3.271-7.974,6.143
			c0.051,0.027,0.116,0.051,0.174,0.077c-1.444,0.465-2.987,0.9-4.53,1.369c-1.725,0.561-3.45,1.244-4.922,2.281
			c-0.033,0.027-0.068,0.055-0.099,0.086c0.555-3.999,0.831-8.513,0.243-12.95l-0.302-1.766l-0.171-1.006l-0.216-0.784
			c-0.263-0.982-0.523-1.962-0.79-2.929c0.157-0.779,0.359-1.564,0.568-2.367c0.684-2.144,1.594-4.24,2.296-5.816
			c1.372-2.353,2.639-4.894,2.536-6.119c0,0,0.622,3.487-3.416,9.472c0.172-0.015,0.35-0.039,0.541-0.079
			c0.335-0.062,0.764-0.131,1.181-0.269c0.431-0.13,0.866-0.31,1.324-0.525c0.896-0.45,1.8-1.09,2.546-1.935
			c0.753-0.837,1.342-1.879,1.694-3.042c0.195-0.563,0.287-1.198,0.359-1.8c0.068-0.618,0.014-1.27-0.055-1.869
			c-0.089-0.625-0.261-1.24-0.473-1.795c-0.239-0.582-0.53-1.099-0.835-1.548c-0.339-0.462-0.712-0.851-1.071-1.167
			c-0.325-0.308-0.77-0.529-1.085-0.693c-0.294-0.171-0.608-0.26-0.787-0.324c-0.191-0.063-0.304-0.081-0.304-0.081
			s-0.065,0.086-0.195,0.257c-0.109,0.164-0.329,0.409-0.507,0.659c-0.205,0.262-0.431,0.539-0.705,0.84
			c-0.246,0.257-0.51,0.547-0.804,0.876c-0.298,0.298-0.564,0.596-0.812,0.879c-0.287,0.313-0.513,0.607-0.729,0.912
			c-0.243,0.325-0.414,0.642-0.592,0.987c-0.188,0.354-0.291,0.705-0.432,1.09c-0.219,0.765-0.362,1.602-0.353,2.497
			c0,0.89,0.12,1.817,0.322,2.704c0.092,0.45,0.215,0.884,0.339,1.28c0.109,0.4,0.267,0.792,0.369,1.1
			c0.051,0.151,0.103,0.277,0.161,0.408c-0.459,0.89-0.921,1.825-1.342,2.803c-0.113,0.308-0.223,0.614-0.339,0.922
			c-0.575-1.661-1.156-3.287-1.841-4.714c-1.383-3.14-2.912-5.915-4.333-8.36c0.084-0.498,0.233-1.066,0.512-1.701
			c0.25-0.743,0.705-1.482,1.097-2.245c0.773-1.259,1.513-2.471,2.143-3.504c1.763-1.745,3.815-3.992,3.997-5.155
			c0,0-0.178,2.828-4.441,6.708c0.13,0.024,0.28,0.038,0.434,0.044c0.271,0.012,0.623,0.036,0.969,0.012
			c0.359-0.022,0.726-0.073,1.126-0.159c0.784-0.178,1.602-0.503,2.338-1.02c0.742-0.507,1.396-1.208,1.892-2.038
			c0.257-0.404,0.452-0.876,0.627-1.33c0.164-0.469,0.246-0.984,0.308-1.461c0.045-0.508,0.034-1.013-0.027-1.482
			c-0.075-0.501-0.205-0.957-0.359-1.358c-0.175-0.425-0.39-0.805-0.612-1.112c-0.191-0.301-0.493-0.556-0.705-0.739
			c-0.191-0.188-0.421-0.322-0.551-0.402c-0.134-0.08-0.223-0.12-0.223-0.12s-0.072,0.057-0.209,0.161
			c-0.112,0.11-0.332,0.257-0.517,0.418c-0.209,0.161-0.431,0.34-0.705,0.515c-0.239,0.158-0.492,0.332-0.787,0.529
			c-0.287,0.176-0.548,0.361-0.797,0.529c-0.281,0.187-0.51,0.373-0.736,0.564c-0.257,0.211-0.444,0.421-0.649,0.659
			c-0.22,0.238-0.363,0.494-0.541,0.765c-0.322,0.549-0.582,1.174-0.746,1.874c-0.171,0.685-0.243,1.427-0.26,2.16
			c-0.014,0.364-0.004,0.722,0.017,1.054c0.011,0.334,0.065,0.666,0.079,0.929c0.007,0.074,0.021,0.126,0.027,0.193
			c-0.582,0.729-1.196,1.496-1.828,2.288c-0.504,0.732-1.063,1.434-1.443,2.208c-0.136,0.228-0.186,0.481-0.298,0.719
			c-0.031-0.048-0.062-0.101-0.088-0.151c-2.387-4.016-4.176-7.05-5.015-8.456c0.015-0.044,0.032-0.081,0.046-0.126
			c0.057-0.185,0.141-0.419,0.2-0.657c0.067-0.233,0.127-0.491,0.175-0.758c0.099-0.529,0.157-1.08,0.14-1.598
			c-0.01-0.529-0.101-1.023-0.248-1.468c-0.087-0.221-0.154-0.428-0.277-0.635c-0.109-0.202-0.214-0.381-0.364-0.57
			c-0.13-0.173-0.271-0.348-0.441-0.519c-0.154-0.163-0.315-0.337-0.498-0.51c-0.181-0.185-0.34-0.353-0.488-0.503
			c-0.171-0.169-0.308-0.334-0.429-0.481c-0.11-0.147-0.243-0.284-0.313-0.381C47.482,0.055,47.438,0,47.438,0
			s-0.07,0.017-0.179,0.055c-0.101,0.043-0.291,0.1-0.458,0.207c-0.184,0.1-0.438,0.24-0.628,0.428
			c-0.204,0.193-0.421,0.428-0.606,0.708c-0.174,0.267-0.337,0.575-0.469,0.926c-0.117,0.332-0.2,0.693-0.243,1.068
			c-0.031,0.354-0.048,0.735,0,1.097c0.053,0.357,0.12,0.726,0.247,1.059c0.224,0.672,0.592,1.278,1.054,1.762
			c0.452,0.483,0.993,0.842,1.532,1.09c0.274,0.122,0.529,0.221,0.792,0.288c0.245,0.073,0.501,0.104,0.7,0.14
			c0.11,0.024,0.221,0.031,0.32,0.038c-2.484-3.451-2.18-5.519-2.18-5.519c-0.053,0.98,1.412,3.325,2.485,4.909
			c0.498,1.465,1.665,4.909,3.217,9.5c0.12,0.357,0.245,0.782,0.368,1.15c-1.962-1.066-4.451-1.846-6.854-2.59
			c-1.348-0.423-2.635-0.95-3.806-1.576c-0.017-0.19-0.031-0.364-0.066-0.568c-0.044-0.331-0.101-0.679-0.188-1.037
			c-0.163-0.715-0.38-1.427-0.681-2.069c-0.297-0.655-0.676-1.215-1.097-1.688c-0.228-0.228-0.421-0.452-0.679-0.646
			c-0.245-0.191-0.474-0.364-0.765-0.515c-0.255-0.144-0.518-0.284-0.83-0.409c-0.277-0.12-0.568-0.25-0.886-0.364
			c-0.327-0.137-0.609-0.26-0.876-0.364c-0.301-0.12-0.558-0.25-0.796-0.368c-0.214-0.12-0.452-0.221-0.588-0.308
			c-0.151-0.075-0.235-0.116-0.235-0.116s-0.073,0.056-0.193,0.161c-0.107,0.106-0.308,0.281-0.462,0.505
			c-0.173,0.221-0.417,0.529-0.547,0.866c-0.154,0.351-0.294,0.76-0.378,1.21c-0.073,0.422-0.104,0.9-0.083,1.401
			c0.034,0.472,0.123,0.97,0.267,1.458c0.15,0.455,0.335,0.946,0.588,1.373c0.255,0.411,0.539,0.835,0.873,1.182
			c0.648,0.719,1.425,1.275,2.257,1.629c0.82,0.365,1.689,0.519,2.491,0.539c0.406,0.003,0.78-0.014,1.135-0.066
			c0.347-0.045,0.685-0.137,0.95-0.202c0.15-0.036,0.294-0.079,0.417-0.126c-4.945-2.979-5.674-5.715-5.674-5.715
			c0.491,1.328,3.932,3.666,6.115,5.039c0-0.029-0.003-0.063-0.003-0.092c1.08,0.642,2.243,1.217,3.441,1.686
			c2.993,1.153,5.922,2.293,7.633,3.785c0.091,0.077,0.147,0.137,0.231,0.214c0.703,2.24,1.391,4.591,1.916,7.125
			c0.478,1.937,0.659,3.845,0.923,5.765c0.058,1.068,0.118,2.141,0.178,3.221l0.046,0.809c-0.042,0-0.025,0.421-0.039,0.609
			l-0.038,1.451c-0.039,0.592-0.126,1.177-0.2,1.766c-1.181-1.054-2.575-2.12-4.009-3.154c-1.636-1.17-3.241-2.334-4.51-3.405
			c-0.074-0.236-0.147-0.517-0.251-0.799c-0.109-0.316-0.231-0.652-0.385-0.982c-0.294-0.669-0.648-1.325-1.069-1.896
			c-0.417-0.582-0.9-1.061-1.401-1.444c-0.27-0.181-0.505-0.364-0.795-0.501c-0.277-0.139-0.532-0.266-0.849-0.359
			c-0.281-0.093-0.565-0.18-0.897-0.243c-0.294-0.066-0.605-0.133-0.939-0.185c-0.348-0.074-0.652-0.137-0.933-0.19
			c-0.318-0.063-0.596-0.137-0.851-0.21c-0.229-0.077-0.488-0.134-0.638-0.188c-0.161-0.05-0.253-0.07-0.253-0.07
			s-0.066,0.07-0.157,0.195c-0.084,0.123-0.245,0.333-0.357,0.582c-0.122,0.25-0.308,0.604-0.368,0.953
			c-0.081,0.373-0.14,0.803-0.14,1.259c0.015,0.432,0.073,0.904,0.19,1.392c0.126,0.455,0.312,0.932,0.542,1.381
			c0.236,0.416,0.512,0.862,0.846,1.231c0.33,0.354,0.689,0.715,1.083,0.989c0.777,0.582,1.649,0.974,2.529,1.164
			c0.876,0.197,1.761,0.181,2.551,0.049c0.4-0.073,0.765-0.166,1.1-0.284c0.334-0.11,0.649-0.267,0.892-0.381
			c0.144-0.063,0.272-0.134,0.385-0.208c-5.424-1.959-6.665-4.5-6.665-4.5c0.71,1.17,4.317,2.726,6.735,3.665
			c1.16,1.153,2.615,2.411,4.066,3.667c1.652,1.429,3.23,2.919,4.298,4.184c-0.686,3.802-2.004,7.491-3.352,11.066
			c-0.842-0.318-1.708-0.593-2.58-0.884c-1.114-0.376-2.264-0.697-3.251-1.174c-0.481-0.227-0.996-0.378-1.388-0.668
			c-0.077-0.267-0.154-0.539-0.26-0.83c-0.137-0.394-0.294-0.814-0.488-1.23c-0.364-0.839-0.809-1.662-1.338-2.377
			c-0.519-0.726-1.125-1.324-1.755-1.807c-0.341-0.226-0.632-0.454-0.993-0.628c-0.349-0.176-0.669-0.334-1.061-0.448
			c-0.354-0.117-0.708-0.221-1.124-0.305c-0.364-0.081-0.758-0.169-1.176-0.233c-0.429-0.087-0.812-0.167-1.162-0.231
			c-0.4-0.077-0.748-0.171-1.069-0.262c-0.288-0.096-0.609-0.166-0.795-0.231c-0.207-0.063-0.318-0.089-0.318-0.089
			s-0.081,0.085-0.2,0.246c-0.106,0.154-0.308,0.413-0.445,0.726c-0.154,0.315-0.382,0.756-0.464,1.198
			C33.308,45.891,33.23,46.429,33.23,47c0.021,0.539,0.091,1.131,0.238,1.745c0.157,0.566,0.387,1.167,0.677,1.723
			c0.298,0.522,0.644,1.083,1.061,1.542c0.411,0.442,0.862,0.896,1.354,1.239c0.97,0.732,2.063,1.225,3.164,1.458
			c1.097,0.243,2.204,0.226,3.193,0.062c0.501-0.089,0.953-0.205,1.381-0.356c0.416-0.137,0.806-0.335,1.11-0.482
			c0.182-0.075,0.344-0.167,0.486-0.257c-6.792-2.446-8.347-5.629-8.347-5.629c0.922,1.514,5.715,3.545,8.73,4.705
			c-0.014-0.068-0.04-0.141-0.057-0.214c0.308,0.193,0.642,0.361,0.967,0.557c0.986,0.588,2.103,1.013,3.2,1.505
			c0.845,0.37,1.689,0.727,2.478,1.109c-0.802,2.115-1.581,4.186-2.21,6.211c-0.541,1.667-0.986,3.282-1.318,4.747
			c-0.347,1.42-0.575,2.854-0.732,4.079c-0.183,1.256-0.2,1.772-0.27,2.348c-0.029,0.242-0.046,0.431-0.06,0.561H12.332v4.477
			h33.498c-0.056,0.089-0.109,0.188-0.166,0.28c-0.375,0.753-0.994,1.396-1.509,2.095c-0.236,0.28-0.611,0.568-0.905,0.849
			c-0.305,0.288-0.63,0.578-0.967,0.859c-0.659,0.517-1.341,1.242-1.906,1.961l-0.631,1.136c-0.265,0.432-0.364,0.869-0.501,1.304
			c-0.248,0.873-0.332,1.738-0.588,2.516c-0.238,0.78-0.652,1.451-1.248,1.964l-0.021,0.018v0.003
			c-0.361,0.186-0.638,0.527-1.069,0.571c-0.364,0.138-0.879,0.141-1.334,0.209c-0.929,0.113-1.846,0.418-2.736,0.682
			c-1.634,0.469-3.256,0.995-4.875,1.516l0.167-0.075l-0.578,0.209c-0.031,0.007-0.063,0.017-0.091,0.03l0,0l-0.007,0.007
			l0.027,0.068c1.829-0.383,3.658-0.756,5.47-1.197c0.919-0.219,1.795-0.459,2.734-0.517c0.469-0.045,0.903-0.031,1.429-0.191
			c0.529-0.059,0.933-0.452,1.377-0.712c0.161-0.131,0.271-0.305,0.411-0.452c-0.057,0.318-0.06,0.646-0.089,0.976
			c-0.027,0.403-0.048,0.664-0.098,1.02c-0.027,0.753-0.174,1.27-0.508,1.688c-0.341,0.373-0.953,0.633-1.408,0.883
			c-0.953,0.523-1.451,1.071-1.468,1.036c0,0,0.655-0.297,1.66-0.581c0.484-0.202,1.136-0.233,1.755-0.801
			c0.568-0.558,0.792-1.492,0.838-2.129c0.031-0.346,0.046-0.787,0.046-1.081c0.014-0.336-0.015-0.678,0.034-0.989
			c0.067-0.562,0.101-1.064,0.207-1.516c0.053-0.127,0.137-0.243,0.178-0.373c0.294-0.876,0.424-1.745,0.628-2.55
			c0.107-0.391,0.21-0.821,0.398-1.129l0.607-1.15c0.515-0.637,1.017-1.201,1.699-1.776c0.322-0.284,0.648-0.567,0.96-0.896
			c0.308-0.339,0.628-0.592,0.929-0.989c0.476-0.731,1.037-1.389,1.401-2.214c0.094-0.188,0.174-0.366,0.263-0.551h6.567
			c-0.07,0.062-0.123,0.103-0.197,0.168c-0.452,0.4-0.922,0.899-1.321,1.554c-0.291,0.626-0.642,1.256-0.772,2.063
			c-0.161,0.739-0.325,1.502-0.498,2.279l-0.375,1.058l-0.091,0.263c0.033-0.041-0.094,0.13-0.133,0.182l-0.365,0.479
			c-0.431,0.708-1.03,1.143-1.552,1.687c-0.546,0.599-1.198,1.058-1.595,1.783c-0.491,0.66-0.806,1.328-1.017,1.981
			c-0.221,0.681-0.462,1.205-0.83,1.656c-0.315,0.452-0.786,0.777-1.153,1.064c-0.395,0.287-0.739,0.537-1.023,0.742
			c-0.592,0.394-0.84,0.729-0.816,0.739c-0.017-0.023,0.255-0.301,0.893-0.616c0.312-0.164,0.688-0.362,1.118-0.599
			c0.435-0.253,0.949-0.503,1.36-1.017c0.438-0.444,0.796-1.102,1.041-1.711c0.26-0.653,0.631-1.259,1.052-1.803
			c0.315-0.575,0.917-1.017,1.425-1.523c-0.08,0.26-0.364,0.568-0.395,1.064c-0.238,1.003-0.077,2.289,0.087,3.524
			c0.221,1.212,0.378,2.399,0.291,3.289c0.003,0.452-0.154,0.801-0.197,1.078c-0.063,0.271-0.098,0.428-0.098,0.428
			s0.084-0.134,0.231-0.366c0.109-0.243,0.467-0.558,0.544-1.044c0.108-0.472,0.294-1.044,0.238-1.652
			c0.021-0.62-0.084-1.243-0.147-1.872c-0.137-0.702-0.25-1.376-0.341-1.999c0.414,1.472,1.28,3.189,2.156,4.88
			c0.987,1.776,1.95,3.546,2.458,4.936c0.247,0.701,0.354,1.3,0.348,1.745c-0.104,0.424-0.165,0.667-0.165,0.667
			s0.111-0.229,0.308-0.646c0.087-0.445,0.18-1.123-0.014-1.896c-0.308-1.554-1.23-3.418-2.163-5.219
			c-0.987-1.775-1.98-3.535-2.555-4.907c-0.275-0.701-0.435-1.276-0.476-1.714c0.021-0.192,0.034-0.332,0.044-0.445
			c0.579-0.555,1.244-1.085,1.655-1.725l0.354-0.486c0.073-0.109,0.083-0.096,0.207-0.314l0.097-0.302l0.392-1.197
			c0.147-0.767,0.291-1.526,0.431-2.259c0.089-0.691,0.38-1.379,0.628-2.02c0.277-0.52,0.669-1.047,1.083-1.464
			c0.175-0.185,0.322-0.343,0.486-0.514h3.593c-0.166,0.226-0.357,0.5-0.484,0.894c-0.228,0.51-0.414,1.129-0.521,1.803
			c-0.07,0.343-0.063,0.688-0.094,1.048c-0.029,0.396-0.05,0.66-0.1,1.013c-0.027,0.756-0.175,1.273-0.508,1.69
			c-0.339,0.377-0.953,0.637-1.408,0.883c-0.954,0.523-1.451,1.075-1.469,1.04c0,0,0.656-0.301,1.662-0.581
			c0.482-0.205,1.134-0.233,1.755-0.805c0.566-0.558,0.792-1.488,0.837-2.125c0.032-0.349,0.046-0.79,0.046-1.085
			c0.014-0.339-0.014-0.678,0.034-0.988c0.074-0.637,0.088-1.239,0.231-1.719c0.073-0.431,0.169-0.783,0.25-1.067h6.657
			c-0.075,0.168-0.137,0.298-0.219,0.486c-0.198,0.479-0.527,0.972-0.66,1.608c-0.154,0.637-0.318,1.32-0.496,2.039
			c-0.233,0.726-0.25,1.513-0.25,2.324c0.021,0.808-0.103,1.666,0.037,2.494c0.104,0.839,0.213,1.69,0.315,2.547
			c0.264,1.711,0.78,3.333-0.014,4.612c-0.719,1.242-2.026,2.115-2.978,2.937c-0.5,0.41-0.931,0.828-1.256,1.252
			c-0.312,0.422-0.592,0.814-0.652,1.205c-0.228,0.746,0.074,1.178-0.003,1.17c0.073,0.014-0.164-0.455,0.146-1.122
			c0.089-0.342,0.403-0.685,0.746-1.04c0.362-0.356,0.814-0.698,1.32-1.074c0.993-0.784,2.396-1.448,3.334-2.957
			c0.462-0.75,0.626-1.69,0.567-2.577c-0.062-0.917-0.28-1.701-0.353-2.543c-0.119-0.831-0.242-1.663-0.366-2.48
			c-0.157-0.821-0.048-1.622-0.089-2.406c-0.007-0.783-0.062-1.54,0.12-2.234c0.113-0.705,0.229-1.372,0.332-1.988
			c0.093-0.619,0.362-1.157,0.485-1.66c0.076-0.229,0.131-0.394,0.195-0.595h2.714c0.048,0.044,0.079,0.092,0.15,0.116l0,0
			c0,0.023,0,0.092,0,0.092s0.034,0.089,0.086,0.233c0.052,0.112,0.093,0.146,0.134,0.171c0.03-0.038,0.062-0.082,0.068-0.205
			c0-0.151,0-0.25,0-0.25c0,0.003,0.058-0.093,0.099-0.161h29.513V78.142z"/>
		<path d="M57.162,85.048c-0.157-0.575-0.312-0.969-0.312-0.969s-0.103,0.394-0.184,1.003c-0.098,0.622-0.014,1.399,0.054,2.19
			c0.069,0.738,0.241,1.471,0.255,2.094c0.07,0.603,0.16,1.006,0.16,1.006s0.163-0.383,0.331-0.961
			c0.221-0.559,0.144-1.4,0.123-2.242C57.467,86.389,57.299,85.608,57.162,85.048z"/>
		<path d="M39.346,95.403c-0.158-0.568-0.313-0.965-0.313-0.965s-0.101,0.39-0.182,0.999c-0.098,0.626-0.014,1.403,0.053,2.196
			c0.07,0.74,0.241,1.472,0.255,2.092c0.07,0.602,0.161,1.006,0.161,1.006s0.163-0.384,0.33-0.962
			c0.221-0.562,0.144-1.403,0.124-2.241C39.65,96.751,39.483,95.968,39.346,95.403z"/>
		<path d="M63.603,99.194c-0.096-0.485-0.161-0.732-0.178-1.129c-0.004-0.362,0.034-0.726,0.068-1.061
			c0.164-1.365,0.085-2.341,0.085-2.341s-0.078,0.223-0.229,0.608c-0.174,0.373-0.352,0.925-0.561,1.609
			c-0.089,0.349-0.144,0.738-0.182,1.17c-0.037,0.404,0.059,0.982,0.168,1.349c0.216,0.855,0.273,1.687,0.387,2.635
			c0.215,1.841,0.424,3.683,0.582,5.064c0.201,1.383,0.338,2.3,0.338,2.3s0.117-3.723-0.15-7.439
			C63.849,101.06,63.787,100.03,63.603,99.194z"/>
		<path d="M68.739,84.213l0.715,1.902c0.63,1.212,1.526,2.307,2.081,3.388c0.342,0.5,0.513,1.137,0.65,1.804
			c0.201,0.674,0.185,1.171,0.174,1.868c-0.021,1.294-0.216,2.734,0.476,4.165c0.315,0.537,0.794,1.215,1.407,1.622
			c0.667,0.425,1.283,0.523,1.913,0.791c1.225,0.465,2.375,1.181,3.572,1.762l3.586,1.77l0.049-0.062l-0.014-0.007l0,0l0,0
			l-0.593-0.394l0.124,0.103l-2.947-1.831c-1.174-0.653-2.266-1.427-3.504-1.988c-0.589-0.294-1.308-0.458-1.763-0.78
			c-0.476-0.352-0.804-0.79-1.143-1.402c-0.476-1.034-0.346-2.382-0.295-3.727c0.018-0.634-0.03-1.489-0.235-2.095
			c-0.145-0.647-0.325-1.294-0.732-1.927c-0.705-1.276-1.53-2.252-2.218-3.374L69.242,84l-0.548-1.882
			c-0.335-1.294-0.753-2.573-1.245-3.819c0.366,1.29,0.644,2.584,0.835,3.912L68.739,84.213z"/>
		<path d="M84.919,97.183c-0.314-0.007-0.667-0.068-1.037-0.109c-0.328-0.075-0.681-0.25-1.047-0.35
			c-0.753-0.16-1.465-0.732-2.382-0.886l-1.335-0.257c-0.438-0.007-0.869-0.014-1.286-0.021c-0.842-0.045-1.574,0.144-2.231,0.198
			c-1.287,0.182-2.149,0.339-2.149,0.339s0.869,0.093,2.17,0.154c0.644,0.017,1.417-0.007,2.197,0.068
			c0.394,0.023,0.801,0.048,1.211,0.071l1.194,0.295c0.818,0.078,1.558,0.619,2.413,0.776c0.831,0.281,1.615,0.295,2.265,0.22
			c1.301-0.186,2.143-0.004,2.143-0.004s-0.205-0.078-0.561-0.216C86.134,97.312,85.545,97.21,84.919,97.183z"/>
		<polygon points="37.916,91.707 37.902,91.714 37.895,91.725 		"/>
		<path d="M31.506,88.688l1.227,0.007c0.407,0.079,0.806,0.157,1.196,0.229c0.773,0.12,1.52,0.332,2.147,0.473
			c1.271,0.267,2.137,0.387,2.137,0.387s-0.795-0.363-2.003-0.859c-0.622-0.216-1.284-0.571-2.113-0.739
			c-0.407-0.096-0.827-0.202-1.251-0.298l-1.36-0.075c-0.929-0.075-1.755,0.309-2.522,0.271c-0.751,0.1-1.494,0.1-2.132-0.064
			c-0.612-0.124-1.208-0.172-1.583-0.12c-0.38,0.044-0.601,0.071-0.601,0.071s0.862,0.035,2.083,0.531
			c0.609,0.229,1.374,0.41,2.253,0.346C29.843,88.908,30.69,88.565,31.506,88.688z"/>
		<path d="M69.215,79.113c0.521,0.391,0.999,0.849,1.499,1.28c0.999,0.876,1.854,1.896,3.148,2.594l0.021,0.014h0.014
			c0.581,0.137,1.17,0.336,1.759,0.418l1.725,0.171c0.537,0.027,1.096,0.082,1.67,0.209c0.295,0.071,0.568,0.051,0.784,0.191
			l0.701,0.325c0.5,0.171,0.808,0.657,1.239,1.003c0.41,0.438,0.804,0.927,1.286,1.222c0.25,0.181,0.421,0.335,0.739,0.523
			c0.309,0.109,0.623,0.253,0.924,0.257c0.613,0.075,1.164,0.041,1.719,0.075l1.177,0.267l0.589,0.141
			c0.048,0.01,0.085,0.017,0.137,0.03c0.051,0.014,0.089,0.041,0.171,0.034c-0.085-0.092-0.185-0.096-0.28-0.144l-0.564-0.223
			l-1.133-0.435l-0.004-0.003l-0.023-0.004c-0.579-0.133-1.181-0.137-1.698-0.246c-0.28-0.027-0.489-0.171-0.718-0.253l-0.623-0.53
			c-0.476-0.354-0.764-0.818-1.13-1.215c-0.444-0.384-0.804-0.945-1.389-1.191l-0.859-0.411c-0.284-0.171-0.619-0.164-0.876-0.239
			c-0.15-0.034-0.314-0.034-0.469-0.062c0.103-0.021,0.253-0.048,0.489-0.085c0.397-0.056,0.979-0.216,1.653-0.202
			c0.663-0.062,1.434-0.048,2.289,0.007c0.842-0.011,1.752,0.137,2.659,0.209c1.82,0.16,3.654,0.362,5.058,0.311
			c1.396-0.037,2.311-0.215,2.311-0.215s-0.928-0.079-2.283-0.277c-1.355-0.191-3.162-0.473-5.003-0.685
			c-0.931-0.041-1.852-0.144-2.734-0.103c-0.873-0.014-1.701,0.137-2.406,0.273c-0.712,0.079-1.204,0.418-1.584,0.541
			c-0.28,0.119-0.432,0.185-0.51,0.219c-0.397-0.072-0.791-0.15-1.215-0.157l-1.708-0.123c-0.555-0.062-1.061-0.227-1.595-0.336
			c-1.051-0.561-2.087-1.465-3.128-2.272c-0.527-0.41-1.074-0.808-1.677-1.129c-0.28-0.191-0.619-0.291-0.928-0.418
			c-0.301-0.167-0.674-0.103-0.988-0.157c0.321,0.106,0.66,0.082,0.938,0.284C68.667,78.758,68.962,78.888,69.215,79.113z"/>
	</g>
</g>
<g>
</g>
<g>
</g>
<g>
</g>
<g>
</g>
<g>
</g>
<g>
</g>
<g>
</g>
<g>
</g>
<g>
</g>
<g>
</g>
<g>
</g>
<g>
</g>
<g>
</g>
<g>
</g>
<g>
</g>
</svg>
