<?xml version="1.0" encoding="iso-8859-1"?>
<!-- Generator: Adobe Illustrator 19.0.0, SVG Export Plug-In . SVG Version: 6.00 Build 0)  -->
<svg version="1.1" id="Layer_1" xmlns="http://www.w3.org/2000/svg" xmlns:xlink="http://www.w3.org/1999/xlink" x="0px" y="0px"
	 viewBox="0 0 356.887 356.887" style="enable-background:new 0 0 356.887 356.887;" xml:space="preserve">
<g>
	<g>
		<g>
			<rect x="206.318" y="181.614" style="fill:#F5B484;" width="73.552" height="65.905"/>
			<circle style="fill:#F5B484;" cx="156.613" cy="130.541" r="17.662"/>
			<circle style="fill:#F5B484;" cx="329.575" cy="130.541" r="17.663"/>
			<path style="fill:#F5CFB2;" d="M332.851,145.019c0,49.571-40.184,89.757-89.757,89.757c-49.571,0-89.758-40.186-89.758-89.757
				v-28.955c0-49.572,40.187-89.758,89.758-89.758c49.572,0,89.757,40.186,89.757,89.758V145.019z"/>
			<circle style="fill:#333E48;" cx="197.033" cy="124.22" r="9.286"/>
			<circle style="fill:#333E48;" cx="289.155" cy="124.22" r="9.285"/>
			<path style="fill:#333E48;" d="M243.094,26.306c-47.08,0-85.666,36.255-89.431,82.364c27.739-5.537,50.857-23.872,62.923-48.601
				c17.451,30.103,50.018,50.352,87.318,50.352c9.869,0,19.4-1.429,28.415-4.071C327.476,61.349,289.383,26.306,243.094,26.306z"/>
			<path style="fill:#333E48;" d="M276.387,170.69c0-8.246-6.684-14.93-14.93-14.93h-36.932c-8.246,0-14.931,6.685-14.931,14.93
				H276.387z"/>
			<path style="fill:#F5B484;" d="M254.461,147.425c0,6.335-5.135,11.47-11.469,11.47c-6.335,0-11.471-5.135-11.471-11.47v-7.647
				c0-6.335,5.136-11.469,11.471-11.469c6.334,0,11.469,5.135,11.469,11.469V147.425z"/>
		</g>
		<path style="fill:#333E48;" d="M356.887,286.119c0-21.318-17.282-38.6-38.601-38.6H167.901c-21.319,0-38.602,17.282-38.602,38.6
			v44.461h227.587v-44.461H356.887z"/>
		<polygon style="fill:#FFFFFF;" points="206.318,247.519 243.094,305.819 279.87,247.519 		"/>
		<rect x="279.87" y="301.723" style="fill:#FFFFFF;" width="40.055" height="6.281"/>
		<g>
			<path style="fill:#E94F3D;" d="M240.953,268.65c1.778-1.616,1.778-4.259,0-5.874l-10.607-9.629
				c-1.778-1.616-3.234-0.972-3.234,1.432l0.001,22.27c0,2.404,1.455,3.048,3.234,1.432L240.953,268.65z"/>
			<path style="fill:#E94F3D;" d="M245.234,268.65c-1.777-1.616-1.777-4.259,0-5.874l10.605-9.629
				c1.778-1.616,3.235-0.972,3.235,1.432l-0.001,22.27c0,2.404-1.456,3.048-3.235,1.432L245.234,268.65z"/>
			<circle style="fill:#E94F3D;" cx="243.093" cy="265.714" r="4.005"/>
		</g>
	</g>
	<g>
		<g>
			<path style="fill:#5C6670;" d="M189.32,313.802c0-49.202-39.887-89.088-89.089-89.088c-49.2,0-89.087,39.886-89.087,89.088
				H189.32z"/>
			<circle style="fill:#333E48;" cx="100.232" cy="224.714" r="10.016"/>
			<path style="fill:#5C6670;" d="M11.145,313.802c0-49.202,39.887-89.088,89.087-89.088c49.202,0,89.089,39.886,89.089,89.088
				H11.145z"/>
		</g>
		<rect y="313.802" style="fill:#B3874F;" width="200.463" height="16.778"/>
		<rect y="313.802" style="fill:#5A3C3D;" width="200.463" height="8.39"/>
	</g>
</g>
<g>
</g>
<g>
</g>
<g>
</g>
<g>
</g>
<g>
</g>
<g>
</g>
<g>
</g>
<g>
</g>
<g>
</g>
<g>
</g>
<g>
</g>
<g>
</g>
<g>
</g>
<g>
</g>
<g>
</g>
</svg>
