<?xml version="1.0" encoding="iso-8859-1"?>
<!-- Generator: Adobe Illustrator 19.0.0, SVG Export Plug-In . SVG Version: 6.00 Build 0)  -->
<svg version="1.1" id="Layer_1" xmlns="http://www.w3.org/2000/svg" xmlns:xlink="http://www.w3.org/1999/xlink" x="0px" y="0px"
	 viewBox="0 0 290.626 290.626" style="enable-background:new 0 0 290.626 290.626;" xml:space="preserve">
<g>
	<g>
		<g>
			<path d="M126.563,131.25C98.133,131.25,75,154.383,75,182.813s23.133,51.563,51.563,51.563c28.43,0,51.563-23.133,51.563-51.563
				S154.992,131.25,126.563,131.25z M84.375,182.813c0-22.697,18.028-41.212,40.509-42.103
				c-13.425,9.459-21.759,24.952-21.759,42.103s8.334,32.644,21.759,42.103C102.403,224.025,84.375,205.509,84.375,182.813z
				 M140.597,222.548c-16.861-5.958-28.097-21.722-28.097-39.736s11.236-33.778,28.097-39.736
				c16.373,5.798,28.153,21.398,28.153,39.736S156.97,216.75,140.597,222.548z"/>
			<path d="M56.25,18.75c-12.923,0-23.437,10.514-23.437,23.438S43.327,65.625,56.25,65.625c12.923,0,23.438-10.514,23.438-23.438
				S69.173,18.75,56.25,18.75z M56.25,56.25c-7.753,0-14.063-6.309-14.063-14.063c0-7.754,6.31-14.062,14.063-14.062
				s14.063,6.309,14.063,14.063C70.313,49.942,64.003,56.25,56.25,56.25z"/>
			<path d="M131.25,18.75c-12.923,0-23.438,10.514-23.438,23.438s10.515,23.437,23.438,23.437c12.923,0,23.438-10.514,23.438-23.438
				S144.173,18.75,131.25,18.75z M131.25,56.25c-7.753,0-14.063-6.309-14.063-14.063c0-7.754,6.31-14.062,14.063-14.062
				s14.063,6.309,14.063,14.063C145.313,49.942,139.003,56.25,131.25,56.25z"/>
			<rect x="187.5" y="28.125" width="32.813" height="9.375"/>
			<rect x="187.5" y="46.875" width="32.813" height="9.375"/>
			<rect x="168.75" y="28.125" width="9.375" height="9.375"/>
			<rect x="168.75" y="46.875" width="9.375" height="9.375"/>
			<rect x="89.063" y="28.125" width="9.375" height="9.375"/>
			<rect x="89.063" y="46.875" width="9.375" height="9.375"/>
			<rect x="18.75" y="262.5" width="9.375" height="9.375"/>
			<rect x="37.5" y="262.5" width="9.375" height="9.375"/>
			<path d="M290.625,168.75h-37.5v-32.813v-4.688V14.063C253.125,6.309,246.816,0,239.063,0h-225C6.309,0,0,6.309,0,14.063v262.5
				c0,7.753,6.309,14.063,14.063,14.063h225c7.753,0,14.063-6.309,14.063-14.063V262.5h37.5v-93.75H290.625z M9.375,14.063
				c0-2.588,2.105-4.688,4.688-4.688h225c2.583,0,4.688,2.1,4.688,4.688V75H9.375V14.063z M188.522,140.625h55.228v75.862
				c-1.472-0.525-3.037-0.862-4.688-0.862h-45.164c4.861-9.928,7.664-21.037,7.664-32.813
				C201.563,167.18,196.739,152.653,188.522,140.625z M192.188,182.813c0,36.187-29.438,65.625-65.625,65.625
				c-36.188,0-65.625-29.438-65.625-65.625s29.438-65.625,65.625-65.625C162.75,117.188,192.188,146.626,192.188,182.813z
				 M229.687,225L229.687,225h9.376c2.583,0,4.688,2.1,4.688,4.688s-2.105,4.688-4.688,4.688h-4.688
				c-1.65,0-3.216,0.337-4.688,0.862V225z M243.751,276.563h-0.001c0,2.587-2.105,4.688-4.688,4.688h-225
				c-2.583,0-4.688-2.1-4.688-4.688V84.375H243.75v46.875h-62.864c-13.673-14.4-32.944-23.438-54.323-23.438
				c-41.353,0-75,33.647-75,75c0,41.353,33.647,75,75,75c25.72,0,48.445-13.022,61.959-32.813h31.791v23.438
				c0,7.753,6.309,14.063,14.063,14.063h9.375V276.563z M281.251,253.125h-0.001h-46.875c-2.583,0-4.688-2.1-4.688-4.688
				c0-2.588,2.105-4.688,4.688-4.688h4.688c7.753,0,14.063-6.309,14.063-14.063v-51.563h28.125V253.125z"/>
		</g>
	</g>
</g>
<g>
</g>
<g>
</g>
<g>
</g>
<g>
</g>
<g>
</g>
<g>
</g>
<g>
</g>
<g>
</g>
<g>
</g>
<g>
</g>
<g>
</g>
<g>
</g>
<g>
</g>
<g>
</g>
<g>
</g>
</svg>
